<?xml version="1.0" standalone="no"?>
<!DOCTYPE svg PUBLIC "-//W3C//DTD SVG 20010904//EN"
 "http://www.w3.org/TR/2001/REC-SVG-20010904/DTD/svg10.dtd">
<svg version="1.0" xmlns="http://www.w3.org/2000/svg"
 width="3125.000000pt" height="1875.000000pt" viewBox="0 0 3125.000000 1875.000000"
 preserveAspectRatio="xMidYMid meet">

<g transform="translate(0.000000,1875.000000) scale(0.100000,-0.100000)"
fill="#000000" stroke="none">
<path d="M15165 18313 c-22 -1 -112 -8 -200 -13 -1840 -123 -3646 -855 -5085
-2061 -225 -189 -311 -268 -553 -508 -742 -734 -1307 -1520 -1758 -2446 -770
-1582 -1051 -3322 -824 -5100 203 -1584 871 -3151 1878 -4405 413 -514 906
-1006 1417 -1415 1196 -957 2646 -1601 4143 -1840 1443 -230 2902 -114 4262
340 1578 526 2925 1438 4026 2725 956 1119 1644 2544 1938 4015 110 549 158
1020 168 1620 20 1290 -211 2480 -709 3650 -385 904 -915 1737 -1568 2465
-138 154 -422 442 -596 604 -912 851 -2008 1503 -3219 1914 -743 253 -1522
403 -2332 452 -153 9 -885 12 -988 3z m825 -433 c1102 -51 2090 -282 3085
-720 1322 -582 2493 -1515 3375 -2692 809 -1078 1352 -2344 1579 -3684 131
-769 150 -1689 50 -2484 -206 -1650 -897 -3210 -1978 -4470 -1303 -1517 -3067
-2522 -5022 -2860 -438 -76 -820 -110 -1319 -117 -477 -7 -777 8 -1215 63
-1564 194 -3075 842 -4303 1847 -1923 1573 -3059 3871 -3131 6332 -33 1132
135 2182 514 3210 432 1171 1091 2200 1975 3085 1022 1022 2231 1740 3635
2159 849 253 1847 373 2755 331z"/>
<path d="M19205 15728 c-147 -17 -267 -95 -326 -211 -52 -100 -49 231 -49
-5354 0 -3744 -3 -5241 -11 -5315 -48 -443 -279 -765 -634 -886 -131 -44 -221
-57 -405 -57 -237 1 -393 31 -545 108 -248 124 -380 311 -458 649 l-21 93 -6
3500 c-4 2902 -8 3507 -19 3540 -78 232 -282 353 -513 304 -158 -34 -273 -144
-322 -308 -15 -50 -16 -362 -16 -3520 0 -3729 -2 -3563 50 -3816 70 -338 207
-629 402 -853 263 -302 654 -487 1148 -543 158 -18 480 -15 635 5 857 114
1389 655 1557 1583 l23 128 0 5315 c0 5091 -1 5317 -18 5367 -65 186 -257 296
-472 271z"/>
<path d="M11837 15656 c-124 -52 -230 -165 -269 -288 -17 -58 -18 -251 -18
-6013 0 -4373 3 -5968 11 -6007 43 -201 213 -333 429 -332 204 1 361 112 414
293 15 50 16 511 16 5104 0 2778 2 5048 5 5046 2 -3 533 -2293 1178 -5090 904
-3914 1181 -5097 1202 -5138 78 -156 240 -242 425 -228 235 19 410 172 410
360 0 54 -140 671 -706 3115 -1251 5404 -1918 8297 -1930 8373 l-7 39 1024 0
c563 0 1060 4 1104 9 164 19 266 84 327 209 31 62 33 73 33 172 0 93 -3 111
-27 163 -52 110 -134 182 -246 217 -63 20 -99 20 -1691 20 l-1626 0 -58 -24z"/>
</g>
</svg>
